HIERARCHY
ROOT Bone
{
	OFFSET 0.000000 0.000000 0.000000
	CHANNELS 6 Xposition Yposition Zposition Xrotation Yrotation Zrotation
	JOINT Bone.001
	{
		OFFSET 0.000000 0.000000 0.155911
		CHANNELS 3 Xrotation Yrotation Zrotation
		JOINT Bone.002
		{
			OFFSET 0.000000 0.000000 0.132907
			CHANNELS 3 Xrotation Yrotation Zrotation
			JOINT Bone.003
			{
				OFFSET 0.000000 0.000000 0.127796
				CHANNELS 3 Xrotation Yrotation Zrotation
				JOINT Bone.004
				{
					OFFSET -0.005112 0.000000 0.127796
					CHANNELS 3 Xrotation Yrotation Zrotation
					JOINT Bone.005
					{
						OFFSET -0.005112 0.000000 0.127796
						CHANNELS 3 Xrotation Yrotation Zrotation
						End Site
						{
							OFFSET 0.002556 0.000000 0.127796
						}
					}
				}
			}
		}
	}
}
MOTION
Frames: 35
Frame Time: 0.041667
0.000000 0.000000 0.000000 0.000000 -41.284711 0.000000 0.000000 25.339315 0.000000 0.000000 1.269003 0.000000 0.000000 0.000000 0.000000 0.000000 0.000000 0.000000 0.000000 -3.758556 0.000000 
0.000000 0.000000 0.000000 0.000000 -40.486012 0.000000 0.000000 23.287470 0.000000 0.000000 3.806043 0.000000 0.000000 -1.283895 0.000000 0.000000 0.000000 0.000000 0.000000 -2.522148 0.000000 
0.000000 0.000000 0.000000 0.000000 -39.667841 0.000000 0.000000 22.469300 0.000000 0.000000 4.106648 0.000000 0.000000 -1.257439 0.000000 0.000000 0.000000 0.000000 0.000000 -3.684954 0.000000 
0.000000 0.000000 0.000000 0.000000 -39.667841 0.000000 0.000000 24.991448 0.000000 0.000000 0.327061 0.000000 0.000000 0.000000 0.000000 0.000000 0.000000 0.000000 0.000000 -2.472078 0.000000 
0.000000 0.000000 0.000000 0.000000 -38.829825 0.000000 0.000000 23.049072 0.000000 0.000000 1.744510 0.000000 0.000000 1.231977 0.000000 0.000000 -2.450853 0.000000 0.000000 -2.395006 0.000000 
0.000000 0.000000 0.000000 0.000000 -38.829825 0.000000 0.000000 22.569620 0.000000 0.000000 3.731397 0.000000 0.000000 -1.207461 0.000000 0.000000 0.000000 0.000000 0.000000 -4.698681 0.000000 
0.000000 0.000000 0.000000 0.000000 -38.829825 0.000000 0.000000 23.675757 0.000000 0.000000 1.417800 0.000000 0.000000 0.000000 0.000000 0.000000 0.000000 0.000000 0.000000 -4.698681 0.000000 
0.000000 0.000000 0.000000 0.000000 -38.157227 0.000000 0.000000 23.003159 0.000000 0.000000 0.222651 0.000000 0.000000 1.195149 0.000000 0.000000 1.207461 0.000000 0.000000 -5.906141 0.000000 
0.000000 0.000000 0.000000 0.000000 -38.157227 0.000000 0.000000 23.003159 0.000000 0.000000 0.533194 0.000000 0.000000 0.000000 0.000000 0.000000 1.172259 0.000000 0.000000 -3.478898 0.000000 
0.000000 0.000000 0.000000 0.000000 -38.157227 0.000000 0.000000 23.003159 0.000000 0.000000 0.533194 0.000000 0.000000 0.000000 0.000000 0.000000 1.172259 0.000000 0.000000 -3.478898 0.000000 
0.000000 0.000000 0.000000 0.000000 -38.157227 0.000000 0.000000 22.696009 0.000000 0.000000 0.840344 0.000000 0.000000 0.000000 0.000000 0.000000 0.000000 0.000000 0.000000 -1.159879 0.000000 
0.000000 0.000000 0.000000 0.000000 -37.971604 0.000000 0.000000 21.044091 0.000000 0.000000 2.604793 0.000000 0.000000 0.000000 0.000000 0.000000 0.000000 0.000000 0.000000 -2.264619 0.000000 
0.000000 0.000000 0.000000 0.000000 -37.971604 0.000000 0.000000 20.951078 0.000000 0.000000 2.697806 0.000000 0.000000 0.000000 0.000000 0.000000 0.000000 0.000000 0.000000 -3.377708 0.000000 
0.000000 0.000000 0.000000 0.000000 -37.971604 0.000000 0.000000 22.510386 0.000000 0.000000 0.307150 0.000000 0.000000 -1.106137 0.000000 0.000000 2.223961 0.000000 0.000000 -3.317781 0.000000 
0.000000 0.000000 0.000000 0.000000 -37.971604 0.000000 0.000000 22.026208 0.000000 0.000000 0.791328 0.000000 0.000000 0.000000 0.000000 0.000000 0.000000 0.000000 0.000000 -3.280881 0.000000 
0.000000 0.000000 0.000000 0.000000 -37.971604 0.000000 0.000000 22.329357 0.000000 0.000000 0.181029 0.000000 0.000000 -1.126121 0.000000 0.000000 2.264619 0.000000 0.000000 -4.477165 0.000000 
0.000000 0.000000 0.000000 0.000000 -37.971604 0.000000 0.000000 23.112989 0.000000 0.000000 -1.401590 0.000000 0.000000 0.000000 0.000000 0.000000 1.106137 0.000000 0.000000 -3.280881 0.000000 
0.000000 0.000000 0.000000 0.000000 -37.092837 0.000000 0.000000 21.147441 0.000000 0.000000 0.484178 0.000000 0.000000 -1.126121 0.000000 0.000000 0.000000 0.000000 0.000000 -2.212547 0.000000 
0.000000 0.000000 0.000000 0.000000 -37.092837 0.000000 0.000000 21.631620 0.000000 0.000000 -0.798987 0.000000 0.000000 0.000000 0.000000 0.000000 0.000000 0.000000 0.000000 -3.242244 0.000000 
0.000000 0.000000 0.000000 0.000000 -37.092837 0.000000 0.000000 20.832633 0.000000 0.000000 0.798987 0.000000 0.000000 -1.126121 0.000000 0.000000 1.126121 0.000000 0.000000 -4.423947 0.000000 
0.000000 0.000000 0.000000 0.000000 -37.092837 0.000000 0.000000 21.147441 0.000000 0.000000 0.484178 0.000000 0.000000 -1.126121 0.000000 0.000000 1.126121 0.000000 0.000000 -4.423947 0.000000 
0.000000 0.000000 0.000000 0.000000 -37.092837 0.000000 0.000000 20.832633 0.000000 0.000000 1.639331 0.000000 0.000000 -2.306639 0.000000 0.000000 1.146760 0.000000 0.000000 -3.398255 0.000000 
0.000000 0.000000 0.000000 0.000000 -37.092837 0.000000 0.000000 20.505499 0.000000 0.000000 1.655921 0.000000 0.000000 -1.182001 0.000000 0.000000 0.000000 0.000000 0.000000 -3.459708 0.000000 
0.000000 0.000000 0.000000 0.000000 -37.092837 0.000000 0.000000 20.979419 0.000000 0.000000 1.492544 0.000000 0.000000 -2.306639 0.000000 0.000000 1.146760 0.000000 0.000000 -3.398255 0.000000 
0.000000 0.000000 0.000000 0.000000 -37.775684 0.000000 0.000000 21.994931 0.000000 0.000000 0.525635 0.000000 0.000000 -1.204896 0.000000 0.000000 1.204896 0.000000 0.000000 -3.569591 0.000000 
0.000000 0.000000 0.000000 0.000000 -37.775684 0.000000 0.000000 22.182873 0.000000 0.000000 0.000000 0.000000 0.000000 0.000000 0.000000 0.000000 0.000000 0.000000 0.000000 -3.637861 0.000000 
0.000000 0.000000 0.000000 0.000000 -37.092837 0.000000 0.000000 22.416444 0.000000 0.000000 -0.916418 0.000000 0.000000 0.000000 0.000000 0.000000 0.000000 0.000000 0.000000 -3.637861 0.000000 
0.000000 0.000000 0.000000 0.000000 -35.537678 0.000000 0.000000 19.077663 0.000000 0.000000 1.441654 0.000000 0.000000 0.000000 0.000000 0.000000 0.000000 0.000000 0.000000 -2.574064 0.000000 
0.000000 0.000000 0.000000 0.000000 -33.996459 0.000000 0.000000 18.620208 0.000000 0.000000 0.000000 0.000000 0.000000 0.000000 0.000000 0.000000 1.340008 0.000000 0.000000 -3.967918 0.000000 
0.000000 0.000000 0.000000 0.000000 -33.070678 0.000000 0.000000 17.694427 0.000000 0.000000 1.669290 0.000000 0.000000 -1.311400 0.000000 0.000000 0.000000 0.000000 0.000000 -1.295492 0.000000 
0.000000 0.000000 0.000000 0.000000 -31.534792 0.000000 0.000000 16.158541 0.000000 0.000000 1.669290 0.000000 0.000000 0.000000 0.000000 0.000000 0.000000 0.000000 0.000000 -2.606891 0.000000 
0.000000 0.000000 0.000000 0.000000 -30.579227 0.000000 0.000000 16.542983 0.000000 0.000000 0.329282 0.000000 0.000000 1.326204 0.000000 0.000000 -1.326204 0.000000 0.000000 -1.311400 0.000000 
0.000000 0.000000 0.000000 0.000000 -29.054604 0.000000 0.000000 16.525796 0.000000 0.000000 0.434051 0.000000 0.000000 -1.297741 0.000000 0.000000 0.000000 0.000000 0.000000 -1.283895 0.000000 
0.000000 0.000000 0.000000 0.000000 -26.053495 0.000000 0.000000 12.604880 0.000000 0.000000 1.888484 0.000000 0.000000 -1.244135 0.000000 0.000000 0.000000 0.000000 0.000000 -3.655749 0.000000 
0.000000 0.000000 0.000000 0.000000 -24.075498 0.000000 0.000000 13.235193 0.000000 0.000000 -1.963961 0.000000 0.000000 1.244135 0.000000 0.000000 -2.476113 0.000000 0.000000 0.000000 0.000000 
